<?xml version="1.0" encoding="UTF-8" standalone="no"?>
<svg
   xmlns:ooo="http://xml.openoffice.org/svg/export"
   xmlns:dc="http://purl.org/dc/elements/1.1/"
   xmlns:cc="http://creativecommons.org/ns#"
   xmlns:rdf="http://www.w3.org/1999/02/22-rdf-syntax-ns#"
   xmlns:svg="http://www.w3.org/2000/svg"
   xmlns="http://www.w3.org/2000/svg"
   xmlns:sodipodi="http://sodipodi.sourceforge.net/DTD/sodipodi-0.dtd"
   xmlns:inkscape="http://www.inkscape.org/namespaces/inkscape"
   version="1.2"
   width="6mm"
   height="6mm"
   viewBox="0 0 600 600"
   preserveAspectRatio="xMidYMid"
   fill-rule="evenodd"
   clip-path="url(#presentation_clip_path)"
   stroke-width="28.222"
   stroke-linejoin="round"
   xml:space="preserve"
   id="svg2"
   inkscape:version="0.48.2 r9819"
   sodipodi:docname="joystick.svg"
   inkscape:export-filename="/Users/terry/Dropbox/Arduino/NewTank/TankRemote/joystick.png"
   inkscape:export-xdpi="4334.9336"
   inkscape:export-ydpi="4334.9336"><metadata
   id="metadata68"><rdf:RDF><cc:Work
       rdf:about=""><dc:format>image/svg+xml</dc:format><dc:type
         rdf:resource="http://purl.org/dc/dcmitype/StillImage" /><dc:title></dc:title></cc:Work></rdf:RDF></metadata><sodipodi:namedview
   pagecolor="#ffffff"
   bordercolor="#666666"
   borderopacity="1"
   objecttolerance="10"
   gridtolerance="10"
   guidetolerance="10"
   inkscape:pageopacity="0"
   inkscape:pageshadow="2"
   inkscape:window-width="1015"
   inkscape:window-height="821"
   id="namedview66"
   showgrid="false"
   inkscape:zoom="18.02723"
   inkscape:cx="10.626024"
   inkscape:cy="10.626024"
   inkscape:window-x="0"
   inkscape:window-y="0"
   inkscape:window-maximized="0"
   inkscape:current-layer="svg2" />
 <defs
   class="ClipPathGroup"
   id="defs4">
  <clipPath
   id="presentation_clip_path"
   clipPathUnits="userSpaceOnUse">
   <rect
   x="0"
   y="0"
   width="600"
   height="600"
   id="rect7" />
  </clipPath>
 </defs>
 <defs
   class="TextShapeIndex"
   id="defs9">
  <g
   ooo:slide="id1"
   ooo:id-list="id3 id4"
   id="g11" />
 </defs>
 <defs
   class="EmbeddedBulletChars"
   id="defs13">
  <g
   id="bullet-char-template(57356)"
   transform="scale(0.00048828125,-0.00048828125)">
   <path
   d="M 580,1141 L 1163,571 580,0 -4,571 580,1141 Z"
   id="path16" />
  </g>
  <g
   id="bullet-char-template(57354)"
   transform="scale(0.00048828125,-0.00048828125)">
   <path
   d="M 8,1128 L 1137,1128 1137,0 8,0 8,1128 Z"
   id="path19" />
  </g>
  <g
   id="bullet-char-template(10146)"
   transform="scale(0.00048828125,-0.00048828125)">
   <path
   d="M 174,0 L 602,739 174,1481 1456,739 174,0 Z M 1358,739 L 309,1346 659,739 1358,739 Z"
   id="path22" />
  </g>
  <g
   id="bullet-char-template(10132)"
   transform="scale(0.00048828125,-0.00048828125)">
   <path
   d="M 2015,739 L 1276,0 717,0 1260,543 174,543 174,936 1260,936 717,1481 1274,1481 2015,739 Z"
   id="path25" />
  </g>
  <g
   id="bullet-char-template(10007)"
   transform="scale(0.00048828125,-0.00048828125)">
   <path
   d="M 0,-2 C -7,14 -16,27 -25,37 L 356,567 C 262,823 215,952 215,954 215,979 228,992 255,992 264,992 276,990 289,987 310,991 331,999 354,1012 L 381,999 492,748 772,1049 836,1024 860,1049 C 881,1039 901,1025 922,1006 886,937 835,863 770,784 769,783 710,716 594,584 L 774,223 C 774,196 753,168 711,139 L 727,119 C 717,90 699,76 672,76 641,76 570,178 457,381 L 164,-76 C 142,-110 111,-127 72,-127 30,-127 9,-110 8,-76 1,-67 -2,-52 -2,-32 -2,-23 -1,-13 0,-2 Z"
   id="path28" />
  </g>
  <g
   id="bullet-char-template(10004)"
   transform="scale(0.00048828125,-0.00048828125)">
   <path
   d="M 285,-33 C 182,-33 111,30 74,156 52,228 41,333 41,471 41,549 55,616 82,672 116,743 169,778 240,778 293,778 328,747 346,684 L 369,508 C 377,444 397,411 428,410 L 1163,1116 C 1174,1127 1196,1133 1229,1133 1271,1133 1292,1118 1292,1087 L 1292,965 C 1292,929 1282,901 1262,881 L 442,47 C 390,-6 338,-33 285,-33 Z"
   id="path31" />
  </g>
  <g
   id="bullet-char-template(9679)"
   transform="scale(0.00048828125,-0.00048828125)">
   <path
   d="M 813,0 C 632,0 489,54 383,161 276,268 223,411 223,592 223,773 276,916 383,1023 489,1130 632,1184 813,1184 992,1184 1136,1130 1245,1023 1353,916 1407,772 1407,592 1407,412 1353,268 1245,161 1136,54 992,0 813,0 Z"
   id="path34" />
  </g>
  <g
   id="bullet-char-template(8226)"
   transform="scale(0.00048828125,-0.00048828125)">
   <path
   d="M 346,457 C 273,457 209,483 155,535 101,586 74,649 74,723 74,796 101,859 155,911 209,963 273,989 346,989 419,989 480,963 531,910 582,859 608,796 608,723 608,648 583,586 532,535 482,483 420,457 346,457 Z"
   id="path37" />
  </g>
  <g
   id="bullet-char-template(8211)"
   transform="scale(0.00048828125,-0.00048828125)">
   <path
   d="M -4,459 L 1135,459 1135,606 -4,606 -4,459 Z"
   id="path40" />
  </g>
 </defs>
 <defs
   class="TextEmbeddedBitmaps"
   id="defs42" />
 <g
   id="g44">
  <g
   id="id2"
   class="Master_Slide">
   <g
   id="bg-id2"
   class="Background" />
   <g
   id="bo-id2"
   class="BackgroundObjects" />
  </g>
 </g>
 <g
   class="SlideGroup"
   id="g49">
  <g
   id="g51">
   <g
   id="id1"
   class="Slide"
   clip-path="url(#presentation_clip_path)">
    <g
   class="Page"
   id="g54">
     <g
   class="com.sun.star.drawing.PolyPolygonShape"
   id="g56">
      <g
   id="id3">
       <path
   fill="rgb(0,0,0)"
   stroke="none"
   d="M 356,158 L 467,68 328,68 378,28 357,11 287,67 219,11 198,28 247,68 104,68 216,158 286,101 356,158 Z M 395,92 L 356,125 318,92 395,92 Z M 216,125 L 177,92 256,92 216,125 Z"
   id="path59" />
      </g>
     </g>
     <g
   class="Graphic"
   id="g61">
      <g
   id="id4">
       <path
   fill="rgb(1,1,1)"
   stroke="none"
   d="M 465,459 C 465,430 412,407 335,400 L 335,335 C 376,321 404,290 404,254 404,206 352,167 288,167 223,167 171,206 171,254 171,290 199,321 240,335 L 240,400 C 165,406 111,429 109,457 L 109,457 109,459 C 109,459 109,459 109,459 L 109,459 109,478 109,495 109,495 C 112,529 189,554 287,554 389,554 465,528 465,493 L 465,491 C 465,468 465,462 465,460 L 465,459 Z M 215,201 C 228,191 246,188 255,195 264,202 260,215 247,225 233,235 215,238 206,232 197,225 201,212 215,201 Z M 312,340 L 312,456 312,458 C 309,460 300,462 288,462 275,462 266,460 264,458 L 263,340 C 271,341 279,342 288,342 296,342 304,341 312,340 Z M 132,459 C 132,442 175,423 240,417 L 240,430 C 196,434 165,446 165,459 165,476 219,490 287,490 354,490 409,476 409,459 409,446 379,434 335,430 L 335,417 C 400,424 442,442 442,459 L 442,460 442,460 C 441,485 370,506 287,506 203,506 132,485 132,460 L 132,459 Z M 442,493 C 442,514 378,537 287,537 245,537 205,532 175,523 149,515 133,504 132,494 L 132,480 C 156,500 216,514 287,514 358,514 418,500 442,480 442,483 442,487 442,491 L 442,493 Z"
   id="path64" />
      </g>
     </g>
    </g>
   </g>
  </g>
 </g>
<path
   sodipodi:type="arc"
   style="fill:#ff0000"
   id="path3045"
   sodipodi:cx="10.044374"
   sodipodi:cy="10.900173"
   sodipodi:rx="4.0087414"
   sodipodi:ry="2.1620178"
   d="m 14.053116,10.900173 a 4.0087414,2.1620178 0 1 1 -8.0174829,0 4.0087414,2.1620178 0 1 1 8.0174829,0 z"
   transform="matrix(26.269575,0,0,36.549458,21.178672,-140.08259)" /></svg>